# Aspose.3D Wavefront OBJ Exporter
# Copyright 2004-2024 Aspose Pty Ltd.
# File created: 04/20/2024 14:43:13

mtllib material.lib
g Object_4

#
# object Object_4
#

v 1 1 -1
v 1 1 -1
v 1 1 -1
v 1 -1 -1
v 1 -1 -1
v 1 -1 -1
v 1 1 1
v 1 1 1
v 1 1 1
v 1 -1 1
v 1 -1 1
v 1 -1 1
v -1 1 -1
v -1 1 -1
v -1 1 -1
v -1 -1 -1
v -1 -1 -1
v -1 -1 -1
v -1 1 1
v -1 1 1
v -1 1 1
v -1 -1 1
v -1 -1 1
v -1 -1 1
# 24 vertices

vn 0 0 -1
vn 0 1 0
vn 1 0 0
vn 0 -1 0
vn 0 0 -1
vn 1 0 0
vn 0 0 1
vn 0 1 0
vn 1 0 0
vn 0 -1 0
vn 0 0 1
vn 1 0 0
vn -1 0 0
vn 0 0 -1
vn 0 1 0
vn -1 0 0
vn 0 -1 0
vn 0 0 -1
vn -1 0 0
vn 0 0 1
vn 0 1 0
vn -1 0 0
vn 0 -1 0
vn 0 0 1
# 24 vertex normals

vt 0.625 -0.5 0
vt 0.625 -0.5 0
vt 0.625 -0.5 0
vt 0.375 -0.5 0
vt 0.375 -0.5 0
vt 0.375 -0.5 0
vt 0.625 -0.75 0
vt 0.625 -0.75 0
vt 0.625 -0.75 0
vt 0.375 -0.75 0
vt 0.375 -0.75 0
vt 0.375 -0.75 0
vt 0.625 -0.25 0
vt 0.625 -0.25 0
vt 0.875 -0.5 0
vt 0.375 -0.25 0
vt 0.125 -0.5 0
vt 0.375 -0.25 0
vt 0.625 -0 0
vt 0.625 -1 0
vt 0.875 -0.75 0
vt 0.375 -0 0
vt 0.125 -0.75 0
vt 0.375 -1 0
# 24 texture coords

usemtl Material
s 1
f 2/2/2 15/15/15 21/21/21
f 2/2/2 21/21/21 8/8/8
f 11/11/11 7/7/7 20/20/20
f 11/11/11 20/20/20 24/24/24
f 22/22/22 19/19/19 13/13/13
f 22/22/22 13/13/13 16/16/16
f 17/17/17 4/4/4 10/10/10
f 17/17/17 10/10/10 23/23/23
f 6/6/6 3/3/3 9/9/9
f 6/6/6 9/9/9 12/12/12
f 18/18/18 14/14/14 1/1/1
f 18/18/18 1/1/1 5/5/5
#12 polygons

